<?xml version="1.0" encoding="utf-8"?>
<!-- Generator: Adobe Illustrator 16.0.4, SVG Export Plug-In . SVG Version: 6.00 Build 0)  -->
<!DOCTYPE svg PUBLIC "-//W3C//DTD SVG 1.1//EN" "http://www.w3.org/Graphics/SVG/1.1/DTD/svg11.dtd">
<svg version="1.1" id="Layer_1" xmlns="http://www.w3.org/2000/svg" xmlns:xlink="http://www.w3.org/1999/xlink" x="0px" y="0px"
	 width="4086.5px" height="1350.5px" viewBox="0 0 4086.5 1350.5" enable-background="new 0 0 4086.5 1350.5" xml:space="preserve">
<g id="Layer_1_1_">
	<path fill="#A6A8AB" d="M738.812,224.066c9.977-19.954,15.963-42.9,15.963-66.846c0-82.808-67.844-150.651-150.651-150.651
		c-82.809,0-150.651,67.843-150.651,150.651s67.843,150.651,150.651,150.651c4.988,0,10.975,0,15.963-0.997
		c50.882,86.799,109.746,221.486,101.765,367.149c-8.979,147.658-61.857,275.362-106.753,358.171c-2.993,0-6.984-0.998-9.978-0.998
		c-82.808,0-150.65,67.844-150.65,150.652c0,82.808,67.843,150.65,150.65,150.65c82.809,0,150.651-67.843,150.651-150.65
		c0-25.941-6.983-50.883-17.958-71.834c53.875-96.777,118.725-248.426,128.702-428.01
		C877.491,494.44,802.664,327.826,738.812,224.066z M604.124,208.104c-27.936,0-51.88-22.947-51.88-51.881
		c0-28.933,22.946-51.879,51.88-51.879c28.933,0,51.88,22.946,51.88,51.879C656.004,185.156,633.057,208.104,604.124,208.104z
		 M604.124,1233.729c-27.936,0-51.88-22.946-51.88-51.88c0-27.936,22.946-51.881,51.88-51.881c28.933,0,51.88,22.947,51.88,51.881
		C656.004,1209.785,633.057,1233.729,604.124,1233.729z"/>
	<path fill="#929497" d="M698.904,486.459c2.993,9.977,7.981,30.929,7.981,30.929s23.944-5.986,64.851-7.981
		c52.877-1.996,80.812,0,80.812,0s-6.984-31.926-10.975-46.892C817.63,367.733,678.951,416.621,698.904,486.459z"/>
	<polygon fill="none" points="161.149,413.628 604.124,157.221 1048.096,413.628 1048.096,925.443 604.124,1181.85 161.149,925.443 
			"/>
	<path fill="#58595B" d="M1048.096,774.791c-61.856,0-115.731,37.912-138.679,91.788c-103.76,2.993-254.411-10.975-377.127-91.788
		c-122.716-80.812-203.528-191.557-250.42-273.367c17.958-24.941,28.933-54.872,28.933-87.796
		c0-82.809-67.843-150.651-150.651-150.651C77.343,262.977,9.5,330.819,9.5,413.628c0,79.815,62.854,145.663,141.672,149.653
		c54.873,97.773,150.651,231.465,301.302,331.233c143.668,94.78,311.279,116.729,433.996,116.729c12.97,0,24.941,0,36.914-0.997
		c26.938,38.909,72.831,64.85,123.714,64.85c82.808,0,150.651-67.843,150.651-150.651
		C1198.747,842.635,1130.904,774.791,1048.096,774.791z M161.149,464.51c-27.936,0-51.88-22.947-51.88-51.88
		s22.947-51.88,51.88-51.88c28.933,0,51.88,22.946,51.88,51.88C213.029,441.562,189.084,464.51,161.149,464.51z M1048.096,977.322
		c-28.933,0-51.88-22.946-51.88-51.879c0-28.934,22.947-51.881,51.88-51.881c28.934,0,51.881,22.947,51.881,51.881
		C1099.977,954.376,1077.029,977.322,1048.096,977.322z"/>
	<path fill="#404041" d="M839.578,865.582c0,0-20.951-0.998-30.928-1.996c-87.797-7.981-148.656,126.707-50.883,139.677
		c19.954,2.993,57.867,5.986,57.867,5.986s5.985-26.938,12.97-68.841C835.588,896.51,839.578,865.582,839.578,865.582z"/>
	<path fill="#A6A8AB" d="M696.909,824.676c-18.956,70.836-44.896,133.691-69.839,183.575c-3.99,7.981,136.684,49.885,150.651,18.956
		c24.942-54.873,47.89-119.723,64.851-191.557C854.544,787.762,709.879,777.785,696.909,824.676z"/>
	<path fill="#A6A8AB" d="M1562.904,360.75v13.968c0,38.91-11.973,63.853-38.91,76.822c31.926,12.97,44.896,40.905,44.896,81.811
		v30.929c0,58.863-30.929,90.79-90.79,90.79h-93.782V273.951h90.789C1535.967,272.953,1562.904,301.887,1562.904,360.75z
		 M1444.18,327.826v100.767h22.946c21.949,0,35.917-9.977,35.917-39.907v-20.952c0-26.938-8.979-38.909-30.929-38.909h-27.935
		V327.826z M1444.18,482.469v116.729h33.921c19.954,0,30.929-8.979,30.929-37.912v-32.924c0-34.919-10.975-45.894-38.91-45.894
		H1444.18z"/>
	<path fill="#A6A8AB" d="M1729.519,654.071c-2.993-9.978-4.988-15.964-4.988-46.892v-59.861c0-34.92-11.973-48.887-38.91-48.887
		h-20.951v155.64h-59.862V272.953h90.791c61.856,0,88.794,28.934,88.794,87.797v29.931c0,38.909-12.97,64.85-38.91,76.822
		c29.931,12.97,39.908,40.905,39.908,80.813v58.863c0,18.956,0.997,31.926,6.983,45.894h-62.854V654.071z M1664.669,327.826v116.73
		h22.946c21.949,0,35.918-9.978,35.918-39.908v-37.912c0-26.938-8.979-38.91-30.93-38.91H1664.669L1664.669,327.826z"/>
	<path fill="#A6A8AB" d="M1823.302,272.953h59.861v381.118h-59.861V272.953z"/>
	<path fill="#A6A8AB" d="M2016.854,441.562h83.806v120.721c0,60.859-30.929,95.779-88.794,95.779
		c-58.863,0-88.795-34.92-88.795-95.779V364.74c0-60.858,30.929-95.777,88.795-95.777c57.865,0,88.794,34.919,88.794,95.777v36.915
		h-56.868V360.75c0-26.938-11.973-37.912-30.928-37.912c-18.957,0-30.93,9.977-30.93,37.912v205.524
		c0,26.938,11.973,36.915,30.93,36.915c18.955,0,30.928-9.977,30.928-36.915v-69.839h-26.938V441.562L2016.854,441.562z"/>
	<path fill="#A6A8AB" d="M2198.434,654.071h-59.861V272.953h59.861v163.621h67.844V272.953h60.857v381.118h-60.857V490.449h-67.844
		V654.071z"/>
	<path fill="#A6A8AB" d="M2354.072,272.953h184.574v54.873h-62.855v326.245h-59.861V327.826h-62.854L2354.072,272.953
		L2354.072,272.953z"/>
	<path fill="#A6A8AB" d="M2552.613,364.74c0-60.858,31.926-95.777,90.791-95.777c58.863,0,90.789,34.919,90.789,95.777v197.543
		c0,60.859-31.926,95.778-90.789,95.778c-58.865,0-90.791-34.919-90.791-95.778V364.74z M2612.475,566.274
		c0,26.938,11.973,37.912,30.93,37.912c18.955,0,30.928-9.978,30.928-37.912V360.75c0-26.938-11.973-37.912-30.928-37.912
		c-18.957,0-30.93,9.977-30.93,37.912V566.274z"/>
	<path fill="#A6A8AB" d="M2825.98,377.711v276.36h-53.875V272.953h74.826l61.857,227.473V272.953h52.877v381.118h-61.855
		L2825.98,377.711z"/>
	<path fill="#58595B" d="M1384.318,700.963h94.779c59.862,0,88.795,32.924,88.795,93.783V987.3
		c0,60.858-28.933,93.782-88.795,93.782h-94.779V700.963z M1444.18,754.838v272.369h33.921c18.956,0,30.929-9.977,30.929-36.914
		V792.75c0-26.938-10.975-36.914-30.929-36.914h-33.921V754.838z"/>
	<path fill="#58595B" d="M1604.807,700.963h59.862v381.117h-59.862V700.963z"/>
	<path fill="#58595B" d="M1797.361,869.572h83.807v120.721c0,60.859-30.929,95.778-88.795,95.778
		c-57.865,0-88.795-34.919-88.795-95.778V792.75c0-60.859,30.929-95.778,88.795-95.778c58.863,0,88.795,34.919,88.795,95.778v36.915
		h-56.869V788.76c0-26.938-11.972-37.912-30.928-37.912c-18.957,0-30.929,9.977-30.929,37.912v204.525
		c0,26.938,11.972,36.916,30.929,36.916c18.956,0,30.928-9.978,30.928-36.916v-69.838h-26.938V869.572L1797.361,869.572z"/>
	<path fill="#58595B" d="M1920.078,700.963h59.861v381.117h-59.861V700.963z"/>
	<path fill="#58595B" d="M2005.879,700.963h184.572v54.873h-62.854v326.244h-59.862V755.836h-62.854L2005.879,700.963
		L2005.879,700.963z"/>
	<path fill="#58595B" d="M2389.99,1081.082h-60.859l-9.977-68.84h-73.83l-9.977,68.84h-54.873l60.859-381.117h87.797
		L2389.99,1081.082z M2253.307,960.362h57.865l-28.932-192.554L2253.307,960.362z"/>
	<path fill="#58595B" d="M2417.926,700.963h59.861v326.244h98.771v54.873h-158.633V700.963L2417.926,700.963z"/>
	<path fill="#A6A8AB" d="M2661.361,869.572h76.822v54.873h-76.822v157.635H2601.5V700.963h158.633v54.873h-98.771V869.572
		L2661.361,869.572z"/>
	<path fill="#A6A8AB" d="M2848.928,860.594h81.811v54.873h-81.811v111.74h103.76v54.873h-163.621V700.963h163.621v54.873h-103.76
		V860.594z"/>
	<path fill="#A6A8AB" d="M3069.418,695.975c57.865,0,87.797,34.919,87.797,95.777v11.973h-56.869v-15.963
		c0-26.938-10.975-37.912-29.932-37.912c-18.955,0-29.93,9.977-29.93,37.912c0,78.817,116.73,92.785,116.73,201.533
		c0,60.859-30.93,95.779-88.795,95.779c-58.863,0-88.795-34.92-88.795-95.779v-22.946h56.869v26.938
		c0,26.938,11.973,36.914,30.928,36.914c18.957,0,30.93-9.977,30.93-36.914c0-78.818-116.73-92.785-116.73-201.534
		C2981.621,730.894,3011.551,695.975,3069.418,695.975z"/>
	<path fill="#A6A8AB" d="M3175.172,700.963h184.574v54.873h-62.855v326.244h-59.861V755.836h-62.854L3175.172,700.963
		L3175.172,700.963z"/>
	<path fill="#A6A8AB" d="M3386.684,700.963h59.861v381.117h-59.861V700.963z"/>
	<path fill="#A6A8AB" d="M3580.234,1011.244l45.895-310.281h54.873l-58.863,381.117h-88.795l-58.863-381.117h60.859
		L3580.234,1011.244z"/>
	<path fill="#A6A8AB" d="M3877.547,1081.082h-60.859l-9.977-68.84h-73.83l-9.977,68.84h-54.873l60.859-381.117h87.797
		L3877.547,1081.082z M3740.863,960.362h57.865l-28.934-192.554L3740.863,960.362z"/>
	<path fill="#A6A8AB" d="M3905.482,700.963h59.861v326.244h98.771v54.873h-158.633V700.963z"/>
	<path fill="#58595B" d="M1048.096,774.791c-61.856,0-115.731,37.912-138.679,91.788c-103.76,2.993-254.411-10.975-377.127-91.788
		c-122.716-80.812-203.528-191.557-250.42-273.367c17.958-24.941,28.933-54.872,28.933-87.796
		c0-82.809-67.843-150.651-150.651-150.651C77.343,262.977,9.5,330.819,9.5,413.628c0,79.815,62.854,145.663,141.672,149.653
		c54.873,97.773,150.651,231.465,301.302,331.233c143.668,94.78,311.279,116.729,433.996,116.729c12.97,0,24.941,0,36.914-0.997
		c26.938,38.909,72.831,64.85,123.714,64.85c82.808,0,150.651-67.843,150.651-150.651
		C1198.747,842.635,1130.904,774.791,1048.096,774.791z M161.149,464.51c-27.936,0-51.88-22.947-51.88-51.88
		s22.947-51.88,51.88-51.88c28.933,0,51.88,22.946,51.88,51.88C213.029,441.562,189.084,464.51,161.149,464.51z M1048.096,977.322
		c-28.933,0-51.88-22.946-51.88-51.879c0-28.934,22.947-51.881,51.88-51.881c28.934,0,51.881,22.947,51.881,51.881
		C1099.977,954.376,1077.029,977.322,1048.096,977.322z"/>
</g>
<g id="tickled_blog" display="none">
	<g display="inline">
		<g>
			<path fill="#C34B8A" d="M493.723,1220.497c40.905-42.901,88.795-81.812,145.663-109.746
				c131.695-65.848,267.381-79.815,362.161-79.815c23.945,52.877,75.824,88.795,137.682,88.795
				c82.809,0,150.651-67.844,150.651-150.651c0-82.809-67.843-150.651-150.651-150.651c-52.878,0-98.771,26.938-125.709,67.843
				c-111.741-0.998-275.362,13.968-437.986,95.778c-66.845,32.924-123.713,76.822-171.603,124.711
				C427.875,1142.677,457.806,1181.587,493.723,1220.497z M1138.23,917.199c28.934,0,51.881,22.946,51.881,51.88
				c0,27.935-22.947,51.88-51.881,51.88c-28.933,0-51.88-22.947-51.88-51.88C1086.351,940.146,1110.295,917.199,1138.23,917.199z"/>
			<path fill="#C34B8A" d="M403.931,1335.231c-37.912-37.912-69.838-76.822-96.776-114.734
				c-27.935,38.909-49.884,76.822-67.843,110.743c-77.82,5.986-138.679,70.836-138.679,149.654
				c0,82.808,67.843,150.65,150.651,150.65c82.808,0,150.651-67.842,150.651-150.65c0-33.922-10.975-64.85-30.929-90.79
				C380.983,1373.144,391.958,1354.188,403.931,1335.231z M251.284,1532.773c-28.933,0-51.88-22.946-51.88-51.879
				c0-28.934,22.947-51.881,51.88-51.881c28.933,0,51.88,22.947,51.88,51.881C302.166,1509.827,279.219,1532.773,251.284,1532.773z"
				/>
		</g>
		<path fill="#A5427B" d="M307.154,1220.497c-6.983,8.979-12.97,18.956-12.97,18.956s13.968,29.931,36.915,64.85
			c29.931,44.896,52.877,62.854,52.877,62.854s9.977-15.964,20.951-32.924C366.019,1297.318,334.092,1258.409,307.154,1220.497z"/>
	</g>
</g>
<g id="greenyblue_getinvo" display="none">
	<g display="inline">
		<g>
			<path fill="#00A59E" d="M493.723,1220.497c40.905-42.901,88.795-81.812,145.663-109.746
				c131.695-65.848,267.381-79.815,362.161-79.815c23.945,52.877,75.824,88.795,137.682,88.795
				c82.809,0,150.651-67.844,150.651-150.651c0-82.809-67.843-150.651-150.651-150.651c-52.878,0-98.771,26.938-125.709,67.843
				c-111.741-0.998-275.362,13.968-437.986,95.778c-66.845,32.924-123.713,76.822-171.603,124.711
				C427.875,1142.677,457.806,1181.587,493.723,1220.497z M1138.23,917.199c28.934,0,51.881,22.946,51.881,51.88
				c0,27.935-22.947,51.88-51.881,51.88c-28.933,0-51.88-22.947-51.88-51.88C1086.351,940.146,1110.295,917.199,1138.23,917.199z"/>
			<path fill="#00A59E" d="M403.931,1335.231c-37.912-37.912-69.838-76.822-96.776-114.734
				c-27.935,38.909-49.884,76.822-67.843,110.743c-77.82,5.986-138.679,70.836-138.679,149.654
				c0,82.808,67.843,150.65,150.651,150.65c82.808,0,150.651-67.842,150.651-150.65c0-33.922-10.975-64.85-30.929-90.79
				C380.983,1373.144,391.958,1354.188,403.931,1335.231z M251.284,1532.773c-28.933,0-51.88-22.946-51.88-51.879
				c0-28.934,22.947-51.881,51.88-51.881c28.933,0,51.88,22.947,51.88,51.881C302.166,1509.827,279.219,1532.773,251.284,1532.773z"
				/>
		</g>
		<path fill="#008278" d="M307.154,1220.497c-6.983,8.979-12.97,18.956-12.97,18.956s13.968,29.931,36.915,64.85
			c29.931,44.896,52.877,62.854,52.877,62.854s9.977-15.964,20.951-32.924C366.019,1297.318,334.092,1258.409,307.154,1220.497z"/>
	</g>
</g>
<g id="submarine_home">
	<g>
		<g>
			<path fill="#FEBE10" d="M403.588,665.046c40.905-42.901,88.795-81.812,145.663-109.746
				c131.695-65.848,267.381-79.815,362.161-79.815c23.945,52.877,75.824,88.795,137.682,88.795
				c82.809,0,150.651-67.844,150.651-150.651c0-82.809-67.843-150.651-150.651-150.651c-52.878,0-98.771,26.938-125.709,67.843
				c-111.741-0.998-275.362,13.968-437.986,95.778c-66.845,32.924-123.713,76.822-171.603,124.711
				C337.74,587.226,367.671,626.136,403.588,665.046z M1048.096,361.748c28.934,0,51.881,22.946,51.881,51.88
				c0,27.935-22.947,51.88-51.881,51.88c-28.933,0-51.88-22.947-51.88-51.88C996.216,384.694,1020.16,361.748,1048.096,361.748z"/>
			<path fill="#FEBE10" d="M313.796,779.78c-37.912-37.912-69.838-76.822-96.776-114.734
				c-27.935,38.909-49.884,76.822-67.843,110.743c-77.82,5.986-138.679,70.836-138.679,149.654
				c0,82.808,67.843,150.65,150.651,150.65c82.808,0,150.651-67.842,150.651-150.65c0-33.922-10.975-64.85-30.929-90.79
				C290.849,817.692,301.823,798.736,313.796,779.78z M161.149,977.322c-28.933,0-51.88-22.946-51.88-51.879
				c0-28.934,22.947-51.881,51.88-51.881c28.933,0,51.88,22.947,51.88,51.881C212.031,954.376,189.084,977.322,161.149,977.322z"/>
		</g>
		<path fill="#DBA214" d="M217.02,665.046c-6.983,8.979-12.97,18.956-12.97,18.956s13.968,29.931,36.915,64.85
			c29.931,44.896,52.877,62.854,52.877,62.854s9.977-15.964,20.951-32.924C275.884,741.867,243.958,702.958,217.02,665.046z"/>
	</g>
</g>
<g id="flame_supporters" display="none">
	<g display="inline">
		<g>
			<path fill="#F16A42" d="M493.723,1220.497c40.905-42.901,88.795-81.812,145.663-109.746
				c131.695-65.848,267.381-79.815,362.161-79.815c23.945,52.877,75.824,88.795,137.682,88.795
				c82.809,0,150.651-67.844,150.651-150.651c0-82.809-67.843-150.651-150.651-150.651c-52.878,0-98.771,26.938-125.709,67.843
				c-111.741-0.998-275.362,13.968-437.986,95.778c-66.845,32.924-123.713,76.822-171.603,124.711
				C427.875,1142.677,457.806,1181.587,493.723,1220.497z M1138.23,917.199c28.934,0,51.881,22.946,51.881,51.88
				c0,27.935-22.947,51.88-51.881,51.88c-28.933,0-51.88-22.947-51.88-51.88C1086.351,940.146,1110.295,917.199,1138.23,917.199z"/>
			<path fill="#F16A42" d="M403.931,1335.231c-37.912-37.912-69.838-76.822-96.776-114.734
				c-27.935,38.909-49.884,76.822-67.843,110.743c-77.82,5.986-138.679,70.836-138.679,149.654
				c0,82.808,67.843,150.65,150.651,150.65c82.808,0,150.651-67.842,150.651-150.65c0-33.922-10.975-64.85-30.929-90.79
				C380.983,1373.144,391.958,1354.188,403.931,1335.231z M251.284,1532.773c-28.933,0-51.88-22.946-51.88-51.879
				c0-28.934,22.947-51.881,51.88-51.881c28.933,0,51.88,22.947,51.88,51.881C302.166,1509.827,279.219,1532.773,251.284,1532.773z"
				/>
		</g>
		<path fill="#D65E3B" d="M307.154,1220.497c-6.983,8.979-12.97,18.956-12.97,18.956s13.968,29.931,36.915,64.85
			c29.931,44.896,52.877,62.854,52.877,62.854s9.977-15.964,20.951-32.924C366.019,1297.318,334.092,1258.409,307.154,1220.497z"/>
	</g>
</g>
<g id="suedeshoes_events" display="none">
	<g display="inline">
		<g>
			<path fill="#00AED9" d="M493.723,1220.497c40.905-42.901,88.795-81.812,145.663-109.746
				c131.695-65.848,267.381-79.815,362.161-79.815c23.945,52.877,75.824,88.795,137.682,88.795
				c82.809,0,150.651-67.844,150.651-150.651c0-82.809-67.843-150.651-150.651-150.651c-52.878,0-98.771,26.938-125.709,67.843
				c-111.741-0.998-275.362,13.968-437.986,95.778c-66.845,32.924-123.713,76.822-171.603,124.711
				C427.875,1142.677,457.806,1181.587,493.723,1220.497z M1138.23,917.199c28.934,0,51.881,22.946,51.881,51.88
				c0,27.935-22.947,51.88-51.881,51.88c-28.933,0-51.88-22.947-51.88-51.88C1086.351,940.146,1110.295,917.199,1138.23,917.199z"/>
			<path fill="#00AED9" d="M403.931,1335.231c-37.912-37.912-69.838-76.822-96.776-114.734
				c-27.935,38.909-49.884,76.822-67.843,110.743c-77.82,5.986-138.679,70.836-138.679,149.654
				c0,82.808,67.843,150.65,150.651,150.65c82.808,0,150.651-67.842,150.651-150.65c0-33.922-10.975-64.85-30.929-90.79
				C380.983,1373.144,391.958,1354.188,403.931,1335.231z M251.284,1532.773c-28.933,0-51.88-22.946-51.88-51.879
				c0-28.934,22.947-51.881,51.88-51.881c28.933,0,51.88,22.947,51.88,51.881C302.166,1509.827,279.219,1532.773,251.284,1532.773z"
				/>
		</g>
		<path fill="#0299B2" d="M307.154,1220.497c-6.983,8.979-12.97,18.956-12.97,18.956s13.968,29.931,36.915,64.85
			c29.931,44.896,52.877,62.854,52.877,62.854s9.977-15.964,20.951-32.924C366.019,1297.318,334.092,1258.409,307.154,1220.497z"/>
	</g>
</g>
<g id="otherside_about" display="none">
	<g display="inline">
		<g>
			<path fill="#6FC16F" d="M493.723,1220.497c40.905-42.901,88.795-81.812,145.663-109.746
				c131.695-65.848,267.381-79.815,362.161-79.815c23.945,52.877,75.824,88.795,137.682,88.795
				c82.809,0,150.651-67.844,150.651-150.651c0-82.809-67.843-150.651-150.651-150.651c-52.878,0-98.771,26.938-125.709,67.843
				c-111.741-0.998-275.362,13.968-437.986,95.778c-66.845,32.924-123.713,76.822-171.603,124.711
				C427.875,1142.677,457.806,1181.587,493.723,1220.497z M1138.23,917.199c28.934,0,51.881,22.946,51.881,51.88
				c0,27.935-22.947,51.88-51.881,51.88c-28.933,0-51.88-22.947-51.88-51.88C1086.351,940.146,1110.295,917.199,1138.23,917.199z"/>
			<path fill="#6FC16F" d="M403.931,1335.231c-37.912-37.912-69.838-76.822-96.776-114.734
				c-27.935,38.909-49.884,76.822-67.843,110.743c-77.82,5.986-138.679,70.836-138.679,149.654
				c0,82.808,67.843,150.65,150.651,150.65c82.808,0,150.651-67.842,150.651-150.65c0-33.922-10.975-64.85-30.929-90.79
				C380.983,1373.144,391.958,1354.188,403.931,1335.231z M251.284,1532.773c-28.933,0-51.88-22.946-51.88-51.879
				c0-28.934,22.947-51.881,51.88-51.881c28.933,0,51.88,22.947,51.88,51.881C302.166,1509.827,279.219,1532.773,251.284,1532.773z"
				/>
		</g>
		<path fill="#599959" d="M307.154,1220.497c-6.983,8.979-12.97,18.956-12.97,18.956s13.968,29.931,36.915,64.85
			c29.931,44.896,52.877,62.854,52.877,62.854s9.977-15.964,20.951-32.924C366.019,1297.318,334.092,1258.409,307.154,1220.497z"/>
	</g>
</g>
</svg>
